<svg width="542" height="542" viewBox="0 0 542 542" fill="none" xmlns="http://www.w3.org/2000/svg">
<circle cx="271" cy="271" r="271" transform="rotate(-90 271 271)" fill="#191919"/>
<path d="M271 0C328.23 0 383.99 18.1177 430.29 51.7564C476.59 85.3951 511.051 132.828 528.736 187.256L271 271L271 0Z" fill="#FFF5E1"/>
<path d="M13.2637 187.256C30.9486 132.828 65.4105 85.3951 111.71 51.7564C158.01 18.1177 213.77 -1.00063e-05 271 0L271 271L13.2637 187.256Z" fill="#01BBB6"/>
<path d="M528.736 187.256C546.421 241.685 546.421 300.315 528.736 354.744C511.051 409.172 476.589 456.605 430.29 490.244L271 271L528.736 187.256Z" fill="#FF984D"/>
<path d="M111.71 490.244C65.4105 456.605 30.9486 409.172 13.2637 354.744C-4.42123 300.315 -4.42122 241.685 13.2637 187.256L271 271L111.71 490.244Z" fill="#FED363"/>
<path d="M430.29 490.244C383.99 523.882 328.23 542 271 542C213.77 542 158.01 523.882 111.71 490.244L271 271L430.29 490.244Z" fill="#5189D3"/>
<path d="M131.552 100.688C131.552 101.669 131.691 102.384 131.968 102.832C132.245 103.259 132.683 103.472 133.28 103.472C134.773 103.472 135.787 102.864 136.32 101.648C136.875 100.432 137.152 98.768 137.152 96.656C137.152 95.632 137.088 94.2027 136.96 92.368C136.832 90.6187 136.768 89.3173 136.768 88.464C134.485 88.464 133.344 88.016 133.344 87.12C133.344 86.5867 133.429 86.2347 133.6 86.064C133.792 85.8933 134.08 85.808 134.464 85.808C134.699 85.808 134.955 85.8293 135.232 85.872C135.509 85.8933 135.712 85.904 135.84 85.904C136.267 85.968 136.672 86 137.056 86C137.76 86 138.411 85.968 139.008 85.904C139.776 85.8613 140.352 85.84 140.736 85.84C141.504 85.84 142.037 85.9147 142.336 86.064C142.656 86.2133 142.816 86.5013 142.816 86.928C142.816 87.376 142.699 87.696 142.464 87.888C142.251 88.0587 141.931 88.1867 141.504 88.272L140.032 88.432C140.011 89.84 140.096 91.5253 140.288 93.488C140.309 93.7867 140.352 94.352 140.416 95.184C140.48 95.9947 140.512 96.7413 140.512 97.424C140.512 100.197 139.925 102.341 138.752 103.856C137.579 105.349 135.829 106.096 133.504 106.096C132.053 106.096 130.837 105.68 129.856 104.848C128.896 103.995 128.416 102.725 128.416 101.04C128.416 100.571 128.587 100.197 128.928 99.92C129.269 99.6213 129.728 99.472 130.304 99.472C130.709 99.472 131.019 99.6107 131.232 99.888C131.445 100.165 131.552 100.432 131.552 100.688ZM171.128 95.728C171.299 96.0267 171.437 96.464 171.544 97.04C171.651 97.5947 171.704 98.096 171.704 98.544C171.704 99.376 171.523 100.56 171.16 102.096C169.688 104.784 167.512 106.128 164.632 106.128C163.565 106.128 162.477 105.776 161.368 105.072C160.259 104.368 159.491 103.557 159.064 102.64C158.488 100.805 158.2 99.6427 158.2 99.152C158.2 98.2987 158.381 97.392 158.744 96.432C159.128 95.472 159.608 94.64 160.184 93.936C160.547 93.4453 161.197 93.0293 162.136 92.688C163.075 92.3253 163.928 92.144 164.696 92.144C166.189 92.144 167.459 92.432 168.504 93.008C169.549 93.5627 170.424 94.4693 171.128 95.728ZM168.344 100.88C168.451 100.603 168.504 99.888 168.504 98.736C168.504 98.1173 168.387 97.5093 168.152 96.912C167.939 96.3147 167.619 95.8027 167.192 95.376C167.149 95.3333 167.032 95.2693 166.84 95.184C166.648 95.0773 166.381 94.9813 166.04 94.896C165.72 94.7893 165.347 94.736 164.92 94.736C163.725 94.736 162.851 95.216 162.296 96.176C161.741 97.136 161.464 98.224 161.464 99.44C161.464 99.6533 161.517 100.059 161.624 100.656C161.752 101.253 161.859 101.627 161.944 101.776C162.008 101.925 162.168 102.139 162.424 102.416C162.701 102.672 163.032 102.907 163.416 103.12C163.821 103.312 164.237 103.408 164.664 103.408C165.624 103.408 166.392 103.184 166.968 102.736C167.544 102.267 168.003 101.648 168.344 100.88ZM197.551 98.8C197.722 98.9067 198.052 99.1093 198.543 99.408C199.055 99.6853 199.396 100.016 199.567 100.4C199.738 100.784 199.823 101.317 199.823 102C199.823 102.768 199.599 103.451 199.151 104.048C198.703 104.624 198.127 105.072 197.423 105.392C196.911 105.627 196.282 105.808 195.535 105.936C194.81 106.064 194.234 106.128 193.807 106.128C193.38 106.128 192.826 106.064 192.143 105.936C191.482 105.808 191.023 105.691 190.767 105.584C190.106 105.2 189.53 104.731 189.039 104.176C188.57 103.621 188.335 103.056 188.335 102.48C188.335 102.053 188.474 101.723 188.751 101.488C189.028 101.232 189.391 101.104 189.839 101.104C190.052 101.104 190.276 101.189 190.511 101.36C190.746 101.509 190.906 101.669 190.991 101.84C191.226 102.395 191.62 102.811 192.175 103.088C192.73 103.365 193.295 103.504 193.871 103.504C194.618 103.504 195.311 103.387 195.951 103.152C196.591 102.896 196.911 102.555 196.911 102.128C196.911 101.936 196.858 101.787 196.751 101.68C196.666 101.552 196.538 101.424 196.367 101.296C196.068 101.083 195.62 100.912 195.023 100.784C194.426 100.635 194.042 100.539 193.871 100.496C192.996 100.304 192.143 100.016 191.311 99.632C190.479 99.2267 189.818 98.7467 189.327 98.192C188.836 97.6373 188.591 96.9227 188.591 96.048C188.591 95.472 188.804 94.8747 189.231 94.256C189.658 93.616 190.138 93.168 190.671 92.912C191.055 92.7627 191.695 92.6027 192.591 92.432C193.508 92.2613 194.127 92.176 194.447 92.176C194.938 92.176 195.471 92.2293 196.047 92.336C196.623 92.4213 197.06 92.5707 197.359 92.784C197.935 93.1253 198.404 93.488 198.767 93.872C199.13 94.2347 199.311 94.6507 199.311 95.12C199.311 95.3547 199.258 95.6107 199.151 95.888C199.044 96.144 198.916 96.304 198.767 96.368C198.447 96.5173 198.074 96.592 197.647 96.592C197.455 96.592 197.295 96.5387 197.167 96.432C197.06 96.3253 196.911 96.1547 196.719 95.92C196.484 95.5573 196.26 95.344 196.047 95.28C195.791 95.216 195.418 95.1413 194.927 95.056C194.436 94.9493 194.106 94.896 193.935 94.896C193.444 94.896 192.932 95.0347 192.399 95.312C191.887 95.5893 191.631 95.9093 191.631 96.272C191.631 96.464 191.706 96.6133 191.855 96.72C192.026 96.8267 192.196 96.9227 192.367 97.008C192.559 97.0933 192.687 97.1467 192.751 97.168C193.199 97.3813 193.69 97.5627 194.223 97.712C194.778 97.8613 195.119 97.9573 195.247 98C196.399 98.2773 197.167 98.544 197.551 98.8ZM216.281 98.672C216.281 97.3707 216.569 96.2933 217.145 95.44C217.721 94.5653 218.521 93.744 219.545 92.976C219.844 92.7627 220.345 92.5813 221.049 92.432C221.753 92.2613 222.372 92.176 222.905 92.176C223.545 92.176 224.217 92.3147 224.921 92.592C225.646 92.848 226.233 93.1467 226.681 93.488C227.47 94.064 228.014 94.736 228.313 95.504C228.612 96.2507 228.761 97.1467 228.761 98.192C228.761 98.64 228.505 99.0773 227.993 99.504C227.502 99.9093 226.969 100.112 226.393 100.112L225.177 100.08C224.558 100.08 223.673 100.101 222.521 100.144L221.849 100.176C221.38 100.219 221.028 100.24 220.793 100.24C220.452 100.24 219.982 100.197 219.385 100.112C219.47 101.115 219.844 101.904 220.505 102.48C221.166 103.035 221.881 103.312 222.649 103.312C223.993 103.312 224.932 103.045 225.465 102.512C225.913 102.192 226.212 101.989 226.361 101.904C226.51 101.819 226.745 101.776 227.065 101.776C227.406 101.776 227.705 101.936 227.961 102.256C228.217 102.576 228.345 102.896 228.345 103.216C228.345 103.579 228.121 103.952 227.673 104.336C227.246 104.699 226.66 105.083 225.913 105.488C225.508 105.659 224.953 105.808 224.249 105.936C223.545 106.064 222.958 106.128 222.489 106.128C221.742 106.128 220.91 105.915 219.993 105.488C219.076 105.04 218.393 104.549 217.945 104.016C217.497 103.483 217.102 102.725 216.761 101.744C216.441 100.763 216.281 99.7387 216.281 98.672ZM222.649 97.808C224.164 97.808 225.273 97.7547 225.977 97.648C225.934 97.0293 225.742 96.528 225.401 96.144C225.06 95.7387 224.59 95.3973 223.993 95.12C223.801 95.0347 223.63 94.9707 223.481 94.928C223.332 94.8853 223.161 94.864 222.969 94.864C221.988 94.864 221.156 95.1307 220.473 95.664C219.812 96.1973 219.417 96.88 219.289 97.712C220.356 97.776 221.476 97.808 222.649 97.808ZM245.197 95.088C244.983 94.7893 244.834 94.5333 244.749 94.32C244.663 94.1067 244.621 93.84 244.621 93.52C244.621 93.1787 244.759 92.8907 245.037 92.656C245.335 92.4213 245.709 92.304 246.157 92.304C246.605 92.304 247.053 92.4747 247.501 92.816C247.949 93.136 248.311 93.552 248.589 94.064C249.037 93.424 249.645 92.9653 250.413 92.688C251.181 92.4107 252.013 92.272 252.909 92.272C253.89 92.272 254.797 92.5707 255.629 93.168C256.482 93.7653 257.154 94.5333 257.645 95.472C258.135 96.4107 258.381 97.3493 258.381 98.288C258.381 99.2053 258.285 100.027 258.093 100.752C257.901 101.456 257.559 102.171 257.069 102.896C256.514 103.664 255.767 104.293 254.829 104.784C253.911 105.275 252.813 105.52 251.533 105.52C251.191 105.52 250.775 105.435 250.285 105.264C249.794 105.072 249.389 104.869 249.069 104.656C248.919 106.107 248.845 107.365 248.845 108.432C248.845 109.072 248.877 109.68 248.941 110.256C248.983 110.939 249.005 111.429 249.005 111.728C249.005 112.197 248.845 112.539 248.525 112.752C248.205 112.987 247.853 113.104 247.469 113.104C246.701 113.104 246.189 112.891 245.933 112.464C245.698 112.059 245.581 111.472 245.581 110.704C245.666 108.869 245.773 107.173 245.901 105.616C246.05 103.376 246.125 100.624 246.125 97.36C246.125 97.104 246.018 96.7307 245.805 96.24C245.613 95.7493 245.41 95.3653 245.197 95.088ZM249.197 101.488C249.303 101.893 249.602 102.235 250.093 102.512C250.605 102.768 251.063 102.896 251.469 102.896C252.685 102.896 253.591 102.565 254.189 101.904C254.637 101.435 254.925 100.976 255.053 100.528C255.202 100.08 255.277 99.3653 255.277 98.384C255.277 97.616 255.127 96.976 254.829 96.464C254.53 95.9307 254.167 95.5467 253.741 95.312C253.314 95.056 252.909 94.928 252.525 94.928C251.65 94.928 250.935 95.1947 250.381 95.728C249.847 96.24 249.506 96.944 249.357 97.84C249.25 98.544 249.197 99.76 249.197 101.488ZM278.962 85.712C278.962 86.2667 278.951 86.9173 278.93 87.664C278.908 88.3893 278.887 88.944 278.866 89.328C278.802 90.416 278.77 91.504 278.77 92.592C278.77 94.0213 278.802 95.1733 278.866 96.048C279.356 94.832 280.05 93.9147 280.946 93.296C281.842 92.656 282.866 92.336 284.018 92.336C284.807 92.336 285.543 92.688 286.226 93.392C286.908 94.096 287.346 94.9173 287.538 95.856C287.559 95.9627 287.57 96.1227 287.57 96.336C287.57 96.592 287.548 96.9973 287.506 97.552C287.442 98 287.41 98.448 287.41 98.896C287.41 100.048 287.452 100.944 287.538 101.584C287.623 102.203 287.804 102.715 288.082 103.12C288.359 103.504 288.796 103.813 289.394 104.048C289.628 104.133 289.788 104.251 289.874 104.4C289.98 104.528 290.034 104.731 290.034 105.008C290.034 105.392 289.831 105.68 289.426 105.872C289.042 106.064 288.668 106.16 288.306 106.16C287.559 106.16 286.887 105.957 286.29 105.552C285.692 105.147 285.244 104.613 284.946 103.952C284.732 103.504 284.594 102.971 284.53 102.352C284.466 101.733 284.434 101.008 284.434 100.176L284.466 97.392C284.466 95.8773 283.975 95.12 282.994 95.12C282.29 95.12 281.607 95.696 280.946 96.848C280.284 98 279.751 99.3547 279.346 100.912C278.94 102.469 278.738 103.749 278.738 104.752C278.738 105.221 278.588 105.573 278.29 105.808C278.012 106.021 277.724 106.128 277.426 106.128C276.956 106.128 276.53 105.989 276.146 105.712C275.762 105.413 275.57 105.083 275.57 104.72C275.719 103.12 275.794 100.443 275.794 96.688C275.794 96.0053 275.74 93.4773 275.634 89.104L275.538 86.16C275.538 85.6907 275.751 85.2853 276.178 84.944C276.604 84.5813 277.084 84.4 277.618 84.4C278.087 84.4 278.428 84.5067 278.642 84.72C278.855 84.9333 278.962 85.264 278.962 85.712Z" fill="black"/>
</svg>
